<mxfile host="app.diagrams.net" agent="Mozilla/5.0 (Macintosh; Intel Mac OS X 10_15_7) AppleWebKit/537.36 (KHTML, like Gecko) Chrome/116.0.0.0 Safari/537.36" version="25.0.3">
  <diagram name="Page-1" id="QuzEDG3wZpIFDUi_jIz6">
    <mxGraphModel dx="470" dy="262" grid="1" gridSize="10" guides="1" tooltips="1" connect="1" arrows="1" fold="1" page="1" pageScale="1" pageWidth="1169" pageHeight="827" math="0" shadow="0">
      <root>
        <mxCell id="0" />
        <mxCell id="1" parent="0" />
        <mxCell id="kismpxpKGvEon13BLpL3-2" value="" style="endArrow=none;html=1;rounded=0;strokeWidth=5;strokeColor=#666666;exitX=0.5;exitY=0;exitDx=0;exitDy=0;entryX=0.279;entryY=0.875;entryDx=0;entryDy=0;entryPerimeter=0;fillColor=#f5f5f5;" edge="1" parent="1" target="ItwXcw8n19wjEmGf4p3s-1">
          <mxGeometry width="50" height="50" relative="1" as="geometry">
            <mxPoint x="364" y="230" as="sourcePoint" />
            <mxPoint x="400" y="190" as="targetPoint" />
          </mxGeometry>
        </mxCell>
        <mxCell id="kismpxpKGvEon13BLpL3-4" value="" style="endArrow=none;html=1;rounded=0;strokeWidth=5;strokeColor=#b85450;exitX=0.721;exitY=0.007;exitDx=0;exitDy=0;entryX=0.262;entryY=0.974;entryDx=0;entryDy=0;entryPerimeter=0;exitPerimeter=0;fillColor=#f8cecc;" edge="1" parent="1" source="ItwXcw8n19wjEmGf4p3s-6" target="ItwXcw8n19wjEmGf4p3s-4">
          <mxGeometry width="50" height="50" relative="1" as="geometry">
            <mxPoint x="374" y="240" as="sourcePoint" />
            <mxPoint x="403" y="177" as="targetPoint" />
          </mxGeometry>
        </mxCell>
        <mxCell id="kismpxpKGvEon13BLpL3-5" value="" style="endArrow=none;html=1;rounded=0;strokeWidth=5;strokeColor=#3700CC;exitX=0.213;exitY=0.023;exitDx=0;exitDy=0;entryX=0.705;entryY=0.81;entryDx=0;entryDy=0;exitPerimeter=0;entryPerimeter=0;fillColor=#6a00ff;" edge="1" parent="1" source="ItwXcw8n19wjEmGf4p3s-4" target="ItwXcw8n19wjEmGf4p3s-1">
          <mxGeometry width="50" height="50" relative="1" as="geometry">
            <mxPoint x="384" y="250" as="sourcePoint" />
            <mxPoint x="413" y="187" as="targetPoint" />
          </mxGeometry>
        </mxCell>
        <mxCell id="kismpxpKGvEon13BLpL3-6" value="" style="endArrow=none;html=1;rounded=0;strokeWidth=5;strokeColor=#d79b00;exitX=1;exitY=0.5;exitDx=0;exitDy=0;entryX=0;entryY=0.5;entryDx=0;entryDy=0;fillColor=#ffe6cc;" edge="1" parent="1" source="ItwXcw8n19wjEmGf4p3s-6" target="ItwXcw8n19wjEmGf4p3s-7">
          <mxGeometry width="50" height="50" relative="1" as="geometry">
            <mxPoint x="394" y="260" as="sourcePoint" />
            <mxPoint x="423" y="197" as="targetPoint" />
          </mxGeometry>
        </mxCell>
        <mxCell id="kismpxpKGvEon13BLpL3-7" value="" style="endArrow=none;html=1;rounded=0;strokeWidth=5;strokeColor=#d6b656;entryX=0.279;entryY=0.089;entryDx=0;entryDy=0;exitX=0.689;exitY=0.875;exitDx=0;exitDy=0;exitPerimeter=0;entryPerimeter=0;fillColor=#fff2cc;" edge="1" parent="1" source="ItwXcw8n19wjEmGf4p3s-4" target="ItwXcw8n19wjEmGf4p3s-7">
          <mxGeometry width="50" height="50" relative="1" as="geometry">
            <mxPoint x="440" y="250" as="sourcePoint" />
            <mxPoint x="433" y="207" as="targetPoint" />
          </mxGeometry>
        </mxCell>
        <mxCell id="kismpxpKGvEon13BLpL3-8" value="" style="endArrow=none;html=1;rounded=0;strokeWidth=5;strokeColor=#001DBC;entryX=1;entryY=0.5;entryDx=0;entryDy=0;fillColor=#0050ef;" edge="1" parent="1" target="ItwXcw8n19wjEmGf4p3s-3">
          <mxGeometry width="50" height="50" relative="1" as="geometry">
            <mxPoint x="430" y="240" as="sourcePoint" />
            <mxPoint x="443" y="217" as="targetPoint" />
          </mxGeometry>
        </mxCell>
        <mxCell id="kismpxpKGvEon13BLpL3-9" value="" style="endArrow=none;html=1;rounded=0;strokeWidth=5;strokeColor=#9673a6;exitX=0.246;exitY=0.007;exitDx=0;exitDy=0;entryX=0.721;entryY=0.974;entryDx=0;entryDy=0;exitPerimeter=0;entryPerimeter=0;fillColor=#e1d5e7;" edge="1" parent="1" source="ItwXcw8n19wjEmGf4p3s-6" target="ItwXcw8n19wjEmGf4p3s-3">
          <mxGeometry width="50" height="50" relative="1" as="geometry">
            <mxPoint x="424" y="290" as="sourcePoint" />
            <mxPoint x="453" y="227" as="targetPoint" />
          </mxGeometry>
        </mxCell>
        <mxCell id="kismpxpKGvEon13BLpL3-10" value="" style="endArrow=none;html=1;rounded=0;strokeWidth=5;strokeColor=#82b366;exitX=0;exitY=0.5;exitDx=0;exitDy=0;entryX=1;entryY=0.5;entryDx=0;entryDy=0;fillColor=#d5e8d4;" edge="1" parent="1" source="ItwXcw8n19wjEmGf4p3s-6" target="ItwXcw8n19wjEmGf4p3s-5">
          <mxGeometry width="50" height="50" relative="1" as="geometry">
            <mxPoint x="434" y="300" as="sourcePoint" />
            <mxPoint x="380" y="250" as="targetPoint" />
          </mxGeometry>
        </mxCell>
        <mxCell id="kismpxpKGvEon13BLpL3-11" value="" style="endArrow=none;html=1;rounded=0;strokeWidth=5;strokeColor=#6c8ebf;entryX=0.262;entryY=0.941;entryDx=0;entryDy=0;exitX=0.656;exitY=-0.026;exitDx=0;exitDy=0;exitPerimeter=0;entryPerimeter=0;fillColor=#dae8fc;" edge="1" parent="1" source="ItwXcw8n19wjEmGf4p3s-5" target="ItwXcw8n19wjEmGf4p3s-3">
          <mxGeometry width="50" height="50" relative="1" as="geometry">
            <mxPoint x="320" y="310" as="sourcePoint" />
            <mxPoint x="473" y="247" as="targetPoint" />
          </mxGeometry>
        </mxCell>
        <mxCell id="ItwXcw8n19wjEmGf4p3s-6" value="" style="ellipse;whiteSpace=wrap;html=1;aspect=fixed;rotation=0;fillColor=#CCFF99;strokeColor=#336600;strokeWidth=4;" parent="1" vertex="1">
          <mxGeometry x="390" y="310" width="20" height="20" as="geometry" />
        </mxCell>
        <mxCell id="ItwXcw8n19wjEmGf4p3s-7" value="" style="ellipse;whiteSpace=wrap;html=1;aspect=fixed;rotation=0;fillColor=#FFCC99;strokeColor=#663300;strokeWidth=4;" parent="1" vertex="1">
          <mxGeometry x="470" y="310" width="20" height="20" as="geometry" />
        </mxCell>
        <mxCell id="ItwXcw8n19wjEmGf4p3s-4" value="" style="ellipse;whiteSpace=wrap;html=1;aspect=fixed;rotation=0;fillColor=#99CCFF;strokeColor=#004C99;strokeWidth=4;" parent="1" vertex="1">
          <mxGeometry x="430" y="230" width="20" height="20" as="geometry" />
        </mxCell>
        <mxCell id="ItwXcw8n19wjEmGf4p3s-3" value="" style="ellipse;whiteSpace=wrap;html=1;aspect=fixed;rotation=0;fillColor=#CC99FF;strokeColor=#4C0099;strokeWidth=4;" parent="1" vertex="1">
          <mxGeometry x="350" y="230" width="20" height="20" as="geometry" />
        </mxCell>
        <mxCell id="ItwXcw8n19wjEmGf4p3s-1" value="" style="ellipse;whiteSpace=wrap;html=1;aspect=fixed;rotation=0;fillColor=#FF99CC;strokeColor=#99004D;strokeWidth=4;" parent="1" vertex="1">
          <mxGeometry x="390" y="150" width="20" height="20" as="geometry" />
        </mxCell>
        <mxCell id="ItwXcw8n19wjEmGf4p3s-5" value="" style="ellipse;whiteSpace=wrap;html=1;aspect=fixed;rotation=0;fillColor=#99FFCC;strokeColor=#006633;strokeWidth=4;" parent="1" vertex="1">
          <mxGeometry x="310" y="310" width="20" height="20" as="geometry" />
        </mxCell>
      </root>
    </mxGraphModel>
  </diagram>
</mxfile>
